<?xml version="1.0" encoding="UTF-8"?>
<svg id="Layer_2" data-name="Layer 2" xmlns="http://www.w3.org/2000/svg" viewBox="0 0 1031.74 154.35">
  <defs>
    <style>
      .cls-1 {
        fill: #e89802;
      }
    </style>
  </defs>
  <g id="Layer_1-2" data-name="Layer 1">
    <g>
      <path class="cls-1" d="M722.14,154.35c-13.95,0-25.62-3.18-35.02-9.55-9.4-6.37-15.09-16.45-17.06-30.25l17.06-3.87c1.06,7.28,3.3,13,6.71,17.17,3.41,4.17,7.58,7.13,12.51,8.87,4.92,1.74,10.19,2.62,15.8,2.62,8.34,0,14.93-1.63,19.78-4.89,4.85-3.26,7.28-7.77,7.28-13.53s-2.31-9.81-6.94-12.17c-4.63-2.35-10.95-4.28-18.99-5.8l-9.32-1.59c-7.28-1.21-13.84-3.1-19.67-5.68-5.84-2.58-10.5-6.06-13.98-10.46-3.49-4.39-5.23-9.93-5.23-16.6,0-10.01,3.87-17.81,11.6-23.42,7.73-5.61,17.96-8.41,30.7-8.41s22.78,2.84,30.59,8.53c7.81,5.69,12.85,13.68,15.12,23.99l-16.83,4.32c-1.36-8.03-4.63-13.68-9.78-16.94-5.16-3.26-11.52-4.89-19.1-4.89s-13.57,1.44-17.97,4.32c-4.4,2.88-6.59,6.97-6.59,12.28s2.08,9.21,6.25,11.71c4.17,2.5,9.74,4.36,16.71,5.57l9.32,1.59c7.88,1.36,14.97,3.22,21.26,5.57,6.29,2.35,11.29,5.73,15.01,10.12,3.71,4.4,5.57,10.16,5.57,17.28,0,10.92-4.06,19.33-12.17,25.24-8.11,5.91-18.99,8.87-32.63,8.87Z"/>
      <rect class="cls-1" y="11.93" width="212.58" height="63.71" rx="9.15" ry="9.15"/>
      <rect class="cls-1" x="85.16" y="87.38" width="127.42" height="63.71" rx="9.15" ry="9.15"/>
      <line class="cls-1" x1="676.97" y1="1.13" x2="593.34" y2="151.17"/>
      <path class="cls-1" d="M593.34,151.17L676.97,1.13h-19.43l-83.63,150.04h19.43Z"/>
      <path class="cls-1" d="M525.13,151.17V1.13h17.96v150.04h-17.96Z"/>
      <path class="cls-1" d="M460.42,151.17V39.97h17.51v13.64h3.18c3.64-9.4,12.05-14.1,25.24-14.1h13.19v16.37h-14.33c-8.19,0-14.71,2.24-19.56,6.71-4.85,4.47-7.28,11.41-7.28,20.81v67.77h-17.96Z"/>
      <path class="cls-1" d="M454.84,135.48v15.69h-36.48c-.62,0-1.23-.02-1.82-.05-5.5-.3-9.77-2.02-12.85-5.18-2.65-2.7-4.27-6.19-4.85-10.45-.17-1.22-.26-2.51-.26-3.87V55.66h-16.99v-15.69h16.99V11.97h17.97v27.99h31.19v15.69h-31.19v72.77c0,3.89,3.16,7.05,7.05,7.05h31.25Z"/>
      <path class="cls-1" d="M367.86,116.37c-.69,1.47-1.29,3.1-2.07,4.38-1.31,2.4-2.89,4.66-4.7,6.7-11.23,13.12-34.38,13.46-48.15,5.22-13.9-8.22-19.29-24.24-18.36-39.84.31-7.9,1.82-14.87,5.76-21.52,7.49-13.21,22.77-19.58,37.54-18.09,8.42.56,16.78,3.56,22.3,9.92,2.49,2.74,4.57,5.88,6.11,9.24.64,1.37,1.12,2.69,1.69,3.77h18.24c-.04-1.15-.44-2.44-.77-3.48-8.84-28.73-37.21-40-65.14-34.58-19.42,3.48-36.21,18.11-41.39,37.16-4.72,18.45-3.68,40.63,7.51,56.38,10.71,15.43,29,23,47.65,22.7,10.24-.08,20.43-2.03,29.29-7.36,10.78-6.18,18.32-16.33,22.48-27.81.33-.93.67-1.88.91-2.8h-18.93Z"/>
      <path class="cls-1" d="M771.54,151.17V1.13h17.96v56.57h3.18c1.67-3.18,4.01-6.29,7.05-9.32,3.03-3.03,7.01-5.53,11.94-7.51,4.93-1.97,11.18-2.96,18.76-2.96,8.19,0,15.61,1.78,22.28,5.34,6.67,3.56,11.97,8.75,15.92,15.58,3.94,6.82,5.91,15.16,5.91,25.01v67.31h-17.96v-65.95c0-11.06-2.77-19.1-8.3-24.1-5.54-5-13-7.5-22.4-7.5-10.61,0-19.33,3.52-26.15,10.57-6.82,7.05-10.23,17.4-10.23,31.04v55.94h-17.96Z"/>
      <rect class="cls-1" x="880.14" y="39.97" width="17.96" height="111.2"/>
      <path class="cls-1" d="M914.89,151.17V55.66h-16.8v-15.69h16.8v-19.28c0-6.06,1.7-10.84,5.12-14.33,3.41-3.49,8.3-5.23,14.67-5.23h27.97v15.46h-22.97c-4.55,0-6.82,2.27-6.82,6.82v16.55h21.77v15.69h-21.77v95.51h-17.96Z"/>
      <path class="cls-1" d="M1031.74,135.48v15.69h-36.48c-.62,0-1.23-.02-1.82-.05-5.5-.3-9.77-2.02-12.85-5.18-2.65-2.7-4.27-6.19-4.85-10.45-.17-1.22-.26-2.51-.26-3.87V55.66h-15.26v-15.69h15.26V11.97h17.97v27.99h31.19v15.69h-31.19v72.77c0,3.89,3.16,7.05,7.05,7.05h31.25Z"/>
      <path class="cls-1" d="M890.04,19.41c-2.86,0-5.25-.91-7.17-2.73-1.92-1.82-2.88-4.12-2.88-6.9s.96-5.24,2.88-7.06c1.92-1.82,4.31-2.73,7.17-2.73s5.22.91,7.09,2.73c1.87,1.82,2.8,4.17,2.8,7.06s-.93,5.08-2.8,6.9c-1.87,1.82-4.23,2.73-7.09,2.73Z"/>
    </g>
  </g>
</svg>